<?xml version="1.0" encoding="UTF-8"?>
<svg version="1.1" xmlns="http://www.w3.org/2000/svg" width="170" height="180">
<path d="M0 0 C56.1 0 112.2 0 170 0 C170 59.4 170 118.8 170 180 C113.9 180 57.8 180 0 180 C0 120.6 0 61.2 0 0 Z " fill="#F9F9F9" transform="translate(0,0)"/>
<path d="M0 0 C56.1 0 112.2 0 170 0 C170 21.12 170 42.24 170 64 C167.66190219 61.66190219 167.09032659 59.84073223 165.9375 56.75 C156.58001269 33.90350321 139.28218747 18.8191755 117 9 C111.68153247 6.7375921 111.68153247 6.7375921 106 6 C106.67804688 6.32871094 107.35609375 6.65742187 108.0546875 6.99609375 C122.92181249 14.59438893 132.4740723 25.32161463 138.06640625 41.03515625 C139.13190529 44.41889589 139.80289699 47.45214582 140 51 C140.061875 51.75925781 140.12375 52.51851562 140.1875 53.30078125 C140.87637026 67.83163839 135.85978056 82.01817643 126.75 93.25 C118.93938175 101.66408765 106.82707367 109.62437984 95.0625 110.125 C94.381875 110.08375 93.70125 110.0425 93 110 C93.7425 109.4225 94.485 108.845 95.25 108.25 C100.51799311 103.93982382 104.44441994 100.28762875 105.359375 93.2265625 C105.67996398 86.1557945 104.75530369 81.34650361 100 76 C97.3743391 73.56098872 97.3743391 73.56098872 95 72 C95.5 69.75 95.5 69.75 97 67 C98.93016482 65.79852662 100.91535078 64.89024424 102.98046875 63.94140625 C110.62481853 60.37798595 114.30667577 53.15634129 117.375 45.625 C119.1639352 35.24917584 118.46665032 25.62647363 112.45703125 16.7109375 C108.6326536 12.03767053 104.29110056 8.85856861 99 6 C99.598125 6.70125 100.19625 7.4025 100.8125 8.125 C106.00502176 14.94945717 106.99016122 20.53356534 106 29 C104.27924662 34.92055825 101.05172295 38.59781924 96 42 C93.125 42.8125 93.125 42.8125 91 43 C91.16757813 42.40832031 91.33515625 41.81664062 91.5078125 41.20703125 C93.14298112 34.96693485 93.14298112 34.96693485 91 29 C91 29.99 91 30.98 91 32 C90.37400383 33.68236471 89.71247732 35.3523962 89 37 C87.515 36.01 87.515 36.01 86 35 C86 33.68 86 32.36 86 31 C85.34 31 84.68 31 84 31 C84.185625 31.61875 84.37125 32.2375 84.5625 32.875 C85 35 85 35 84 37 C83.34 37 82.68 37 82 37 C81.01 34.03 81.01 34.03 80 31 C78.6100592 33.7798816 78.81511796 35.9186326 79 39 C79.89831016 41.30230766 79.89831016 41.30230766 81 43 C75.13824934 42.19324338 71.87082505 39.33163756 68 35 C64.86690866 29.885384 63.94185445 23.87969554 65 18 C67.34302819 11.86206719 70.71849239 7.80759851 76 4 C58.35659211 5.19616325 40.97877832 13.05264777 28 25 C27.09765625 25.79921875 26.1953125 26.5984375 25.265625 27.421875 C14.54764741 37.42926844 8.27948833 49.24376198 3.19140625 62.85546875 C2 66 2 66 0 70 C0 46.9 0 23.8 0 0 Z " fill="#FAFAFA" transform="translate(0,0)"/>
<path d="M0 0 C-2.6362209 1.7574806 -4.5633397 2.60479658 -7.5 3.625 C-21.36819851 9.11154277 -29.24429969 18.93998486 -35.73828125 31.91015625 C-40.83604009 44.39414152 -40.85437559 59.44687121 -36.25390625 72.078125 C-29.85831999 86.98123567 -20.68946637 96.2055237 -6 103 C-2.03597848 104.29384273 1.89465894 105.27818179 6 106 C6 106.99 6 107.98 6 109 C5.27554688 109.11472656 4.55109375 109.22945313 3.8046875 109.34765625 C-4.39729099 111.25535877 -10.15941575 116.38631106 -14.59375 123.3515625 C-19.65952245 132.89210062 -20.16406081 141.94282249 -17.09375 152.19140625 C-13.4452866 161.56013906 -7.74314768 166.47557393 1 171 C2.485 171.99 2.485 171.99 4 173 C-16.97205042 172.17432872 -37.00537855 161.15948198 -51.32421875 146.0234375 C-65.50293346 128.90321787 -72.73993201 110.94605671 -72.57641602 88.75341797 C-72.56255346 86.13509643 -72.59673438 83.52036569 -72.63476562 80.90234375 C-72.70069662 66.83272016 -69.9791483 54.95474503 -62.75 42.6875 C-62.367229 42.02363281 -61.98445801 41.35976563 -61.59008789 40.67578125 C-58.07663679 34.77530711 -53.8569016 29.84813463 -49 25 C-48.38898437 24.31808594 -47.77796875 23.63617187 -47.1484375 22.93359375 C-36.39721811 11.24450203 -16.31898978 -1.01993686 0 0 Z " fill="#040404" transform="translate(72,4)"/>
<path d="M0 0 C5.84313963 0.50696873 10.49277172 1.69179342 15.8125 4.125 C16.50899658 4.43993408 17.20549316 4.75486816 17.9230957 5.0793457 C39.73149701 15.1720534 54.99014255 31.87105958 64 54 C64.34720093 54.78054245 64.69440186 55.5610849 65.05212402 56.36528015 C66.0303514 59.08436488 66.27587134 61.11900116 66.32226562 63.99536133 C66.34148071 64.96439896 66.3606958 65.93343658 66.38049316 66.93183899 C66.38899292 67.97140244 66.39749268 69.01096588 66.40625 70.08203125 C66.41765015 71.16900803 66.42905029 72.2559848 66.4407959 73.37590027 C66.45967618 75.67984137 66.47275606 77.98383624 66.48046875 80.2878418 C66.49972327 83.76255996 66.56171218 87.23482928 66.625 90.70898438 C66.8411135 113.45066399 60.70354874 129.64964013 44.73828125 146.21875 C43.38283203 147.59546875 43.38283203 147.59546875 42 149 C41.29230469 149.7321875 40.58460938 150.464375 39.85546875 151.21875 C28.98048501 161.69865785 15.3295883 167.11870885 1 171 C0.01 171.33 -0.98 171.66 -2 172 C-4.33299825 172.03954234 -6.66708189 172.04401732 -9 172 C-6.59135455 170.39423636 -4.32246359 169.16123179 -1.75 167.875 C5.6392672 163.75383147 10.50891082 157.81011496 13.33984375 149.83203125 C15.55928251 140.31077029 14.69522442 130.60791144 10 122 C5.40981723 115.22049042 -0.1995588 110.63994523 -8 108 C-9.32 108 -10.64 108 -12 108 C-11.67 107.01 -11.34 106.02 -11 105 C-8.62890625 104.2265625 -8.62890625 104.2265625 -5.5625 103.625 C7.9678212 100.50261818 18.96424068 93.15751444 26.5390625 81.421875 C27.02117187 80.62265625 27.50328125 79.8234375 28 79 C28.39960938 78.36578125 28.79921875 77.7315625 29.2109375 77.078125 C34.4311204 67.89374306 35.8328742 56.3955039 35 46 C34.89558594 44.69675781 34.89558594 44.69675781 34.7890625 43.3671875 C33.14470229 30.83350854 26.3837596 19.32790076 17 11 C11.66888819 7.08508061 6.00896434 3.76087551 0 1 C0 0.67 0 0.34 0 0 Z " fill="#030303" transform="translate(104,5)"/>
<path d="M0 0 C1.73438508 3.46877016 2.88054574 6.63954535 4.0625 10.3125 C12.42323065 33.74198938 29.0787792 49.75119523 51.28515625 60.4921875 C57.74296983 63.27557693 65.92819598 66 73 66 C72.28714844 65.61070312 71.57429688 65.22140625 70.83984375 64.8203125 C61.73878594 59.50421682 56.13210259 53.58814778 53.0625 43.375 C50.95176199 34.02744597 51.81921218 25.84437437 56.44140625 17.3515625 C60.35815385 11.29923327 64.69701879 7.44858121 71 4 C71.68707031 3.5978125 72.37414062 3.195625 73.08203125 2.78125 C75 2 75 2 78 3 C77.0925 3.556875 76.185 4.11375 75.25 4.6875 C70.13891416 8.32423416 67.46943815 11.87734105 66 18 C65.35980727 24.91408147 66.89092667 30.34859353 71.1875 35.75 C74.56656842 38.45325474 78.0605193 40.25020584 82 42 C81.236875 42.53625 80.47375 43.0725 79.6875 43.625 C75.69423803 47.15392918 74.22181949 50.22544404 73.5625 55.5 C74.08819028 59.70552222 75.29391336 61.76772984 78 65 C84.66762427 69.31780074 94.45716096 67.29888579 101.8125 65.875 C119.68097577 61.60641968 134.88032194 54.11967806 148 41 C148.78246094 40.21753906 149.56492188 39.43507812 150.37109375 38.62890625 C159.74578003 28.74833471 164.89358301 17.79234048 169 5 C169.33 5 169.66 5 170 5 C170 26.45 170 47.9 170 70 C113.9 70 57.8 70 0 70 C0 46.9 0 23.8 0 0 Z " fill="#FBFBFB" transform="translate(0,110)"/>
<path d="M0 0 C56.1 0 112.2 0 170 0 C170 21.12 170 42.24 170 64 C167.66190219 61.66190219 167.09032659 59.84073223 165.9375 56.75 C156.57348088 33.88755565 139.27920359 18.83682508 117 9 C108.16282622 5.31238921 99.45931497 3.98211467 90 3 C90 2.34 90 1.68 90 1 C89.09378906 1.20496094 88.18757813 1.40992187 87.25390625 1.62109375 C76.09786298 4.08840914 76.09786298 4.08840914 71.4375 4.4375 C55.659208 6.00372751 39.55123163 14.36674705 28 25 C27.09765625 25.79921875 26.1953125 26.5984375 25.265625 27.421875 C14.54764741 37.42926844 8.27948833 49.24376198 3.19140625 62.85546875 C2 66 2 66 0 70 C0 46.9 0 23.8 0 0 Z " fill="#FCFCFC" transform="translate(0,0)"/>
<path d="M0 0 C1.32 0.33 2.64 0.66 4 1 C2.9171875 1.7425 2.9171875 1.7425 1.8125 2.5 C-2.05354342 5.93648304 -6.62548439 11.52852837 -7.203125 16.8828125 C-7.33685101 23.2793731 -6.77792574 28.91998305 -2.34765625 33.83203125 C1.26373559 37.23636258 1.26373559 37.23636258 6 38 C5.67 37.34 5.34 36.68 5 36 C4.53846154 30.57692308 4.53846154 30.57692308 6.5 28.125 C6.995 27.75375 7.49 27.3825 8 27 C8.33 29.31 8.66 31.62 9 34 C9.66 34 10.32 34 11 34 C10.67 31.36 10.34 28.72 10 26 C10.33 26.66 10.66 27.32 11 28 C11.66 28 12.32 28 13 28 C13.66 29.65 14.32 31.3 15 33 C16.12516085 31.16715557 16.12516085 31.16715557 17 29 C16.505 27.515 16.505 27.515 16 26 C16.66 26 17.32 26 18 26 C20.35526559 28.96589 21.06203548 30.36723806 20.6875 34.1875 C20.460625 35.115625 20.23375 36.04375 20 37 C20 37.66 20 38.32 20 39 C25.27523801 36.362381 28.06331251 34.30862739 31 29 C32.82683937 23.51948188 33.24099941 16.97552368 30.98828125 11.57421875 C29.75633777 9.60976833 28.45618231 7.80289238 27 6 C26.401875 5.175 25.80375 4.35 25.1875 3.5 C24.5996875 2.7575 24.5996875 2.7575 24 2 C31.49018749 3.68529219 37.93464743 9.61158882 42 16 C46.58746839 25.50943968 47.69889368 34.63865955 44.375 44.75 C40.75543388 53.5151514 35.57931513 59.73837941 27 64 C23.97437407 64.9535306 21.14704191 65.50046954 18 66 C18.433125 65.61070313 18.86625 65.22140625 19.3125 64.8203125 C22.78207724 61.33467241 24.4500044 58.88480428 24.5625 53.875 C24.31492277 49.91376435 23.66860317 47.07915751 21 44 C20.34 44 19.68 44 19 44 C19.66 44.99 20.32 45.98 21 47 C20.79409746 50.29444058 20.57408028 52.31110367 18.4375 54.875 C17.963125 55.24625 17.48875 55.6175 17 56 C16.01 55.505 16.01 55.505 15 55 C14.77963136 51.14354879 15.39644899 48.50776784 17 45 C16.01 45.33 15.02 45.66 14 46 C13.34 43.36 12.68 40.72 12 38 C10.7018576 40.2236068 10.7018576 40.2236068 11 44 C11.66 44 12.32 44 13 44 C14.20853081 49.31753555 14.20853081 49.31753555 13.3125 52.25 C11.76672508 54.31103322 10.37031549 55.0518738 8 56 C5.69893488 53.50717945 5.01956069 52.32601143 4.8125 48.875 C4.874375 47.92625 4.93625 46.9775 5 46 C5 45.34 5 44.68 5 44 C1.08870231 48.88912211 0.303654 51.732886 1 58 C2.65804096 61.73059215 4.60218438 63.77384494 8 66 C-0.40245258 65.63467597 -7.17081926 61.28468049 -12.875 55.25 C-18.82738557 47.94990449 -21.87133537 38.37492315 -21 29 C-19.03546129 18.66119881 -13.72590699 9.98637805 -5 4 C-2.0625 2.625 -2.0625 2.625 0 2 C0 1.34 0 0.68 0 0 Z " fill="#060606" transform="translate(73,3)"/>
<path d="M0 0 C0 0.66 0 1.32 0 2 C0.87011719 1.98259766 0.87011719 1.98259766 1.7578125 1.96484375 C6.2998246 1.91237826 10.52713569 2.08248937 15 3 C13 5 13 5 10.375 5.125 C9.59125 5.08375 8.8075 5.0425 8 5 C8.40992188 5.45890625 8.81984375 5.9178125 9.2421875 6.390625 C9.78101563 7.00421875 10.31984375 7.6178125 10.875 8.25 C11.40867188 8.85328125 11.94234375 9.4565625 12.4921875 10.078125 C16.85664893 15.64111729 16.70496497 21.13540362 16 28 C14.29499792 33.91906973 11.04378049 37.60316824 6 41 C3.125 41.8125 3.125 41.8125 1 42 C1.16757813 41.40832031 1.33515625 40.81664062 1.5078125 40.20703125 C3.14298112 33.96693485 3.14298112 33.96693485 1 28 C1 28.99 1 29.98 1 31 C0.37400383 32.68236471 -0.28752268 34.3523962 -1 36 C-1.99 35.34 -2.98 34.68 -4 34 C-4 32.68 -4 31.36 -4 30 C-4.66 30 -5.32 30 -6 30 C-5.814375 30.61875 -5.62875 31.2375 -5.4375 31.875 C-5 34 -5 34 -6 36 C-6.66 36 -7.32 36 -8 36 C-8.66 34.02 -9.32 32.04 -10 30 C-11.3899408 32.7798816 -11.18488204 34.9186326 -11 38 C-10.10168984 40.30230766 -10.10168984 40.30230766 -9 42 C-14.86175066 41.19324338 -18.12917495 38.33163756 -22 34 C-25.13039531 28.88978513 -26.06545601 22.87494434 -25 17 C-22.86479606 11.53458086 -20.06663931 7.14953255 -15 4 C-14.34 4 -13.68 4 -13 4 C-13 3.34 -13 2.68 -13 2 C-11.58461283 1.66127487 -10.16762037 1.32925376 -8.75 1 C-7.56664062 0.7215625 -7.56664062 0.7215625 -6.359375 0.4375 C-4 0 -4 0 0 0 Z " fill="#F6F5F6" transform="translate(90,1)"/>
<path d="M0 0 C1.65 0 3.3 0 5 0 C5 0.66 5 1.32 5 2 C5.33 1.34 5.66 0.68 6 0 C7.98 0 9.96 0 12 0 C14.22597431 4.32100896 14.13071827 7.30317025 13 12 C11.4375 13.9375 11.4375 13.9375 10 15 C9.34 14.67 8.68 14.34 8 14 C6.84188612 15.05270463 6.84188612 15.05270463 6 17 C6.99 16.67 7.98 16.34 9 16 C10 17 10 17 10.0625 20.5625 C10.041875 21.696875 10.02125 22.83125 10 24 C13.64108546 22.08363923 15.49502198 20.84453475 17 17 C17.69380891 12.11106742 17.82064254 7.57595697 15 3.375 C14.34 2.59125 13.68 1.8075 13 1 C18.8231125 2.54141213 22.1070679 6.91593716 25.1484375 11.87109375 C27.22930325 17.07325812 26.85488043 23.34390638 25.16015625 28.609375 C22.46670977 34.01440565 18.70938576 37.8069909 13 40 C12.34 39.67 11.68 39.34 11 39 C11.350625 38.46375 11.70125 37.9275 12.0625 37.375 C13.28924249 34.26725237 12.72856431 32.20568297 12 29 C11.01 30.65 10.02 32.3 9 34 C8.01 33.34 7.02 32.68 6 32 C6 31.01 6 30.02 6 29 C5.34 29.33 4.68 29.66 4 30 C4.33 30.66 4.66 31.32 5 32 C4.67 32.66 4.34 33.32 4 34 C3.34 34 2.68 34 2 34 C1.67 31.69 1.34 29.38 1 27 C-1.32536063 30.48804095 -1.33457898 31.90140754 -1 36 C-0.10168984 38.30230766 -0.10168984 38.30230766 1 40 C-5.01298505 39.01828816 -7.75719724 36.81221599 -11.5546875 32.078125 C-14.99826574 27.12681791 -15.74732458 21.9326074 -15 16 C-13.01114885 10.13288909 -10.45039693 5.75028352 -5.375 2.125 C-4.59125 1.75375 -3.8075 1.3825 -3 1 C-2.34 1.33 -1.68 1.66 -1 2 C-1.99 2.33 -2.98 2.66 -4 3 C-5.97977946 7.3763546 -6.51053409 11.23501511 -6 16 C-3.93638856 19.90612165 -2.23910579 22.48603365 2 24 C1.79375 23.05125 1.5875 22.1025 1.375 21.125 C1.25125 20.09375 1.1275 19.0625 1 18 C1.66 17.34 2.32 16.68 3 16 C2.175 15.13375 1.35 14.2675 0.5 13.375 C-1.5152036 10.95447217 -1.98320653 10.11995333 -2.4375 6.875 C-2.02250731 4.14790518 -1.43645437 2.33423835 0 0 Z " fill="#7B7B7B" transform="translate(80,70)"/>
<path d="M0 0 C6.66766841 0.41672928 11.84314232 5.55751029 16.25 10.1875 C22.97075037 18.59761932 24.15566983 28.55031173 23 39 C21.23881055 47.24609897 16.33265409 53.57748531 10 59 C6.47769927 61.13501272 2.9857171 62.92189619 -1 64 C-1.99 63.67 -2.98 63.34 -4 63 C-3.175 62.21625 -2.35 61.4325 -1.5 60.625 C1.50827507 57.02535462 1.65520172 53.86061107 1.44140625 49.28125 C0.84280806 46.18760979 -0.43210162 44.76543013 -3 43 C-2.773125 43.886875 -2.54625 44.77375 -2.3125 45.6875 C-1.94458369 49.5874129 -2.59759022 50.97474324 -5 54 C-5.66 54 -6.32 54 -7 54 C-7.54372951 50.94152152 -8 48.11227195 -8 45 C-8.33 44.38125 -8.66 43.7625 -9 43.125 C-10.18695221 40.60272655 -10.15304535 38.75481627 -10 36 C-10.66 35.67 -11.32 35.34 -12 35 C-10.0625 35.375 -10.0625 35.375 -8 36 C-7.67 36.66 -7.34 37.32 -7 38 C-1.75069708 37.38243495 1.90784102 35.27289522 5.4921875 31.37890625 C9.71209165 25.64508168 10.00584558 19.91984505 9 13 C7.29950931 7.50958591 4.24305092 3.77160082 0 0 Z " fill="#F8F8F8" transform="translate(96,113)"/>
<path d="M0 0 C7.49018749 1.68529219 13.93464743 7.61158882 18 14 C22.58746839 23.50943968 23.69889368 32.63865955 20.375 42.75 C16.75543388 51.5151514 11.57931513 57.73837941 3 62 C-0.02562593 62.9535306 -2.85295809 63.50046954 -6 64 C-5.3503125 63.41605469 -5.3503125 63.41605469 -4.6875 62.8203125 C-1.21792276 59.33467241 0.4500044 56.88480428 0.5625 51.875 C0.30743753 47.87902136 -0.35819568 45.13102735 -3 42 C-3.99 41.34 -4.98 40.68 -6 40 C-6 39.34 -6 38.68 -6 38 C-5.48050781 37.79246094 -4.96101563 37.58492187 -4.42578125 37.37109375 C1.02387342 34.96357533 4.15667099 32.25954851 7 27 C8.82683937 21.51948188 9.24099941 14.97552368 6.98828125 9.57421875 C5.75633777 7.60976833 4.45618231 5.80289238 3 4 C2.401875 3.175 1.80375 2.35 1.1875 1.5 C0.5996875 0.7575 0.5996875 0.7575 0 0 Z " fill="#070707" transform="translate(97,5)"/>
<path d="M0 0 C0.99 0.33 1.98 0.66 3 1 C3.73046875 2.84765625 3.73046875 2.84765625 4.1875 5.0625 C4.34605469 5.79597656 4.50460938 6.52945313 4.66796875 7.28515625 C4.77753906 7.85105469 4.88710937 8.41695312 5 9 C5.66 8.34 6.32 7.68 7 7 C8.36365959 10.68188089 7.44698622 12.47297109 6 16 C6.33 16.99 6.66 17.98 7 19 C8.68864588 17.36290685 8.68864588 17.36290685 10 15 C9.75337759 11.93685156 9.75337759 11.93685156 9 9 C9 8.01 9 7.02 9 6 C15.14810924 11.99046542 15.14810924 11.99046542 15.375 17.75 C15.36391746 21.57347752 14.98798148 23.68721395 12.5 26.625 C11.675 27.40875 10.85 28.1925 10 29 C10.99 29 11.98 29 13 29 C12.34 30.32 11.68 31.64 11 33 C11.66 33.61875 12.32 34.2375 13 34.875 C15.80274109 39.25428295 15.81021441 42.9280578 15 48 C12.30120482 53.4939759 12.30120482 53.4939759 8.75 54.875 C8.1725 54.91625 7.595 54.9575 7 55 C6.67 52.69 6.34 50.38 6 48 C5.01 48 4.02 48 3 48 C3.66 46.02 4.32 44.04 5 42 C5.66 42.99 6.32 43.98 7 45 C9.20731253 41.99805496 10.046661 40.5949277 9.75 36.8125 C9.12093174 34.07381937 9.12093174 34.07381937 8 32 C5.47266765 31.34444881 5.47266765 31.34444881 3 31 C2.505 32.485 2.505 32.485 2 34 C1.67 33.34 1.34 32.68 1 32 C-1.02463255 31.34786708 -1.02463255 31.34786708 -3 31 C-4.38196866 37.12813618 -4.38196866 37.12813618 -2.953125 43 C-1.44533192 44.825109 -1.44533192 44.825109 1 47 C0.34 47.66 -0.32 48.32 -1 49 C-1.16681109 52.08347826 -1.16681109 52.08347826 -1 55 C-4.17033042 54.66032174 -4.99882607 54.00130809 -7.1875 51.5625 C-10.10451016 47.43845115 -10.33938106 45.09071595 -10 40 C-8.64184747 36.72808708 -7.50104494 34.50104494 -5 32 C-4.67 31.01 -4.34 30.02 -4 29 C-4.804375 28.21625 -5.60875 27.4325 -6.4375 26.625 C-9.91306418 23.06466596 -10.34375545 21.10466474 -10.2890625 16.109375 C-9.81880413 12.6777599 -8.23836941 10.55813647 -6 8 C-5.01 8 -4.02 8 -3 8 C-3.33 8.66 -3.66 9.32 -4 10 C-4.41702122 12.9157691 -4.41702122 12.9157691 -4 16 C-2.12498069 18.37719693 -2.12498069 18.37719693 0 20 C0.144375 19.360625 0.28875 18.72125 0.4375 18.0625 C1 16 1 16 2 15 C2.36760731 12.67182036 2.70241581 10.3381615 3 8 C2.34 8 1.68 8 1 8 C0.67 5.36 0.34 2.72 0 0 Z " fill="#EDECED" transform="translate(83,39)"/>
<path d="M0 0 C0.66 0.33 1.32 0.66 2 1 C1.95875 1.763125 1.9175 2.52625 1.875 3.3125 C1.77919176 6.22718416 1.77919176 6.22718416 4 9 C4.38063221 11.3260857 4.71269945 13.66055264 5 16 C5.30903983 17.33917261 5.62942911 18.67653254 6 20 C8.33075929 19.04134491 8.33075929 19.04134491 10 16 C10.08066508 19.54926341 9.94247192 22.58353929 9 26 C9 26.99 9 27.98 9 29 C11.37339853 27.14255768 11.9940468 26.02152312 12.8125 23.0625 C13.00613718 19.89975932 12.70401547 18.60614131 11 16 C14.39739506 17.40581865 16.05036999 18.88714536 18 22 C18.81172632 26.09921789 18.97471253 30.2807154 16.875 33.984375 C15.5 35.625 15.5 35.625 13 38 C13.66 38.66 14.32 39.32 15 40 C3.33806566 40.62289264 3.33806566 40.62289264 -1.625 38.3125 C-5.17941835 34.85161897 -6.79205627 32.60413733 -7.4375 27.625 C-6.87503097 22.96454233 -5.75916327 20.80317099 -3 17 C-0.25 15.5625 -0.25 15.5625 2 15 C1.34 14.319375 0.68 13.63875 0 12.9375 C-2.47260063 9.30586782 -2.47925039 7.3132535 -2 3 C-1.34 2.01 -0.68 1.02 0 0 Z " fill="#7A7A7A" transform="translate(80,138)"/>
<path d="M0 0 C1.35439668 2.70879335 1.06501451 5.00933268 1 8 C1.66 8 2.32 8 3 8 C2.67 5.36 2.34 2.72 2 0 C2.33 0.99 2.66 1.98 3 3 C3.66 3 4.32 3 5 3 C5.66 4.32 6.32 5.64 7 7 C9.16343011 4.96731398 9.16343011 4.96731398 11 2 C13 5 13 5 12.625 8 C12.315625 9.485 12.315625 9.485 12 11 C12 11.99 12 12.98 12 14 C12 14.66 12 15.32 12 16 C12.99 16.33 13.98 16.66 15 17 C15 17.66 15 18.32 15 19 C15.32097656 19.60070312 15.64195313 20.20140625 15.97265625 20.8203125 C17.81895746 24.73755994 17.65844455 28.77664354 17 33 C15.62862663 35.72635582 14.35374905 36.91372243 12 39 C9.828125 39.65234375 9.828125 39.65234375 8 40 C7.53770379 33.38659594 7.55817714 30.15824591 12 25 C11.86382428 21.75706416 11.86382428 21.75706416 11 19 C10.01 20.65 9.02 22.3 8 24 C7.01 23.67 6.02 23.34 5 23 C5.185625 22.360625 5.37125 21.72125 5.5625 21.0625 C5.7790625 20.0415625 5.7790625 20.0415625 6 19 C5.67 18.67 5.34 18.34 5 18 C4.34 18 3.68 18 3 18 C3.33 19.65 3.66 21.3 4 23 C3.01 23 2.02 23 1 23 C0.34 21.35 -0.32 19.7 -1 18 C-2.42041821 20.84083641 -2.31452272 22.85477278 -2 26 C-1.319375 26.61875 -0.63875 27.2375 0.0625 27.875 C2 30 2 30 2.0078125 31.953125 C1.70966863 33.97468588 1.35696895 35.98799321 1 38 C1.33 38.66 1.66 39.32 2 40 C-1.93136089 38.68954637 -4.31206827 37.16791954 -7 34 C-8.20643566 30.38069302 -8.32268559 27.80768995 -8 24 C-6.73339467 21.95708818 -5.40113616 19.95309888 -4 18 C-3.29329272 15.30745009 -3.29329272 15.30745009 -3 13 C-2.67 12.67 -2.34 12.34 -2 12 C-2.33 11.34 -2.66 10.68 -3 10 C-3.30343947 6.51044604 -3.39470082 4.62494296 -1.5 1.625 C-1.005 1.08875 -0.51 0.5525 0 0 Z " fill="#EBEBEB" transform="translate(81,96)"/>
<path d="M0 0 C1.32 0.33 2.64 0.66 4 1 C4.08636719 1.66386719 4.17273438 2.32773438 4.26171875 3.01171875 C5.19214563 8.85889686 6.1147738 12.2139497 11 16 C11.66 16.33 12.32 16.66 13 17 C12.67 15.02 12.34 13.04 12 11 C12.66 10.67 13.32 10.34 14 10 C14 11.32 14 12.64 14 14 C14.66 14.33 15.32 14.66 16 15 C15.70703125 17.01822917 15.4140625 19.03645833 15.12109375 21.0546875 C14.8315703 23.08140667 14.8315703 23.08140667 16 25 C15.67 25.66 15.34 26.32 15 27 C14.34 27 13.68 27 13 27 C12.34 25.02 11.68 23.04 11 21 C9.6100592 23.7798816 9.81511796 25.9186326 10 29 C10.89831016 31.30230766 10.89831016 31.30230766 12 33 C6.13824934 32.19324338 2.87082505 29.33163756 -1 25 C-4.14449572 19.86676692 -4.97222629 13.90499549 -4 8 C-2.89221551 5.11784209 -1.56165131 2.68408818 0 0 Z " fill="#F5F5F5" transform="translate(69,10)"/>
<path d="M0 0 C0.66 0.33 1.32 0.66 2 1 C1.01 1.33 0.02 1.66 -1 2 C-2.97977946 6.3763546 -3.51053409 10.23501511 -3 15 C-1.16689272 18.53042884 0.11746349 20.5167062 3.625 22.4375 C6 24 6 24 7.375 27.5625 C8 31 8 31 7 33 C6.34 33 5.68 33 5 33 C4.67 30.69 4.34 28.38 4 26 C1.67463937 29.48804095 1.66542102 30.90140754 2 35 C2.89831016 37.30230766 2.89831016 37.30230766 4 39 C-2.01298505 38.01828816 -4.75719724 35.81221599 -8.5546875 31.078125 C-11.99826574 26.12681791 -12.74732458 20.9326074 -12 15 C-10.01114885 9.13288909 -7.45039693 4.75028352 -2.375 1.125 C-1.59125 0.75375 -0.8075 0.3825 0 0 Z " fill="#080808" transform="translate(77,71)"/>
<path d="M0 0 C0.99 1.32 1.98 2.64 3 4 C6.0745356 3.2236068 6.0745356 3.2236068 8 1 C8.125 3.875 8.125 3.875 8 7 C7.34 7.66 6.68 8.32 6 9 C6.33 9.99 6.66 10.98 7 12 C6.67 12.66 6.34 13.32 6 14 C8.72872666 12.02409364 8.72872666 12.02409364 11 9 C11.14963532 6.10883176 10.63149193 3.86600184 10 1 C13.16115776 2.36983503 13.9927092 2.9890638 16 6 C16.78213668 10.30175173 16.94852499 14.3531744 14.7265625 18.2109375 C13.23613448 19.99218074 11.82948662 21.56864 10 23 C9.34 23 8.68 23 8 23 C8 21.35 8 19.7 8 18 C6.68 19.32 5.36 20.64 4 22 C4.66 22.33 5.32 22.66 6 23 C5.34 23.99 4.68 24.98 4 26 C3.34 25.67 2.68 25.34 2 25 C1.60828247 23.34608154 1.27942455 21.67654729 1 20 C0.67 19.01 0.34 18.02 0 17 C0 18.98 0 20.96 0 23 C-3.91225672 21.73115998 -6.0949669 20.71481455 -8 17 C-9.29081856 12.12460616 -9.54611022 9.05455767 -7.1875 4.5 C-5 2 -5 2 -3 1 C-3.03480469 1.61488281 -3.06960937 2.22976562 -3.10546875 2.86328125 C-3.13253906 3.67152344 -3.15960938 4.47976562 -3.1875 5.3125 C-3.22230469 6.11300781 -3.25710937 6.91351563 -3.29296875 7.73828125 C-2.93801608 10.47851584 -2.10633718 11.29171079 0 13 C0.69159401 11.15274948 0.69159401 11.15274948 1 9 C0.34 8.01 -0.32 7.02 -1 6 C-1.1875 3.375 -1.1875 3.375 -1 1 C-0.67 0.67 -0.34 0.34 0 0 Z " fill="#434343" transform="translate(82,4)"/>
<path d="M0 0 C0.66 0.33 1.32 0.66 2 1 C1.01 2.2684375 1.01 2.2684375 0 3.5625 C-2.85723373 8.47337048 -2.40266898 11.86585438 -1.375 17.3125 C-0.20135351 20.30393712 -0.20135351 20.30393712 3.125 21.375 C4.548125 21.684375 4.548125 21.684375 6 22 C5.67 21.67 5.34 21.34 5 21 C4.95936168 19.33382885 4.957279 17.66611905 5 16 C5.66 15.67 6.32 15.34 7 15 C7.33 17.97 7.66 20.94 8 24 C6.02 24.99 6.02 24.99 4 26 C2.79727181 28.40545638 2.89928528 29.94996953 2.9375 32.625 C2.94652344 33.44226563 2.95554687 34.25953125 2.96484375 35.1015625 C2.97644531 35.72804687 2.98804687 36.35453125 3 37 C3.99 37.33 4.98 37.66 6 38 C5.01 38.495 5.01 38.495 4 39 C-2.51170607 36.39531757 -6.81392485 32.21284655 -10 26 C-12.05832014 20.38639962 -11.38229376 14.45236295 -9.19921875 9 C-6.93098205 5.2171427 -3.47412618 2.64066598 0 0 Z " fill="#090909" transform="translate(76,113)"/>
<path d="M0 0 C5.56261684 1.30885102 8.1146132 5.38885971 11 10 C12.83235757 15.4970727 13.1772627 21.96647245 11.05859375 27.42578125 C7.95852879 32.58607746 3.75193935 36.89095557 -2 39 C-2.99 38.67 -3.98 38.34 -5 38 C-4.01 37.34 -3.02 36.68 -2 36 C-0.86164036 32.34098686 -0.7064081 30.64310606 -2.3125 27.125 C-2.869375 26.42375 -3.42625 25.7225 -4 25 C-4.66 25 -5.32 25 -6 25 C-6 24.34 -6 23.68 -6 23 C-5.071875 22.5875 -4.14375 22.175 -3.1875 21.75 C0.01082964 19.99405432 1.15960982 19.05103033 3 16 C3.99636425 10.08042413 3.22914769 5.11281717 0 0 Z " fill="#0A0A0A" transform="translate(94,113)"/>
<path d="M0 0 C5.8231125 1.54141213 9.1070679 5.91593716 12.1484375 10.87109375 C14.22930325 16.07325812 13.85488043 22.34390638 12.16015625 27.609375 C9.46670977 33.01440565 5.70938576 36.8069909 0 39 C-0.66 38.67 -1.32 38.34 -2 38 C-1.649375 37.46375 -1.29875 36.9275 -0.9375 36.375 C0.32633428 33.17328648 -0.10782724 31.29417633 -1 28 C-2.44730093 25.67780342 -2.44730093 25.67780342 -4 24 C-3.05125 23.4225 -2.1025 22.845 -1.125 22.25 C1.93968835 20.04342439 2.71620984 19.35481014 4 16 C4.69380891 11.11106742 4.82064254 6.57595697 2 2.375 C1.34 1.59125 0.68 0.8075 0 0 Z " fill="#080808" transform="translate(93,71)"/>
<path d="M0 0 C0.33 0.66 0.66 1.32 1 2 C1.66 2 2.32 2 3 2 C3.66 3.65 4.32 5.3 5 7 C6.12516085 5.16715557 6.12516085 5.16715557 7 3 C6.67 2.01 6.34 1.02 6 0 C6.66 0 7.32 0 8 0 C10.2200864 2.79566436 11.06323462 4.27280181 10.75 7.875 C10.5025 8.90625 10.255 9.9375 10 11 C8.77276672 16.30869606 8.77276672 16.30869606 11 21 C10.79409746 24.29444058 10.57408028 26.31110367 8.4375 28.875 C7.7259375 29.431875 7.7259375 29.431875 7 30 C6.34 29.67 5.68 29.34 5 29 C4.77963136 25.14354879 5.39644899 22.50776784 7 19 C6.01 19.33 5.02 19.66 4 20 C3.34 17.36 2.68 14.72 2 12 C0.7018576 14.2236068 0.7018576 14.2236068 1 18 C1.66 18 2.32 18 3 18 C4.20853081 23.31753555 4.20853081 23.31753555 3.3125 26.25 C1.76672508 28.31103322 0.37031549 29.0518738 -2 30 C-4.25954929 27.55215494 -4.97439201 26.31369786 -5.25 22.9375 C-5 20 -5 20 -4 17 C-4.33 16.01 -4.66 15.02 -5 14 C-4.34 13.67 -3.68 13.34 -3 13 C-3.66 12.01 -4.32 11.02 -5 10 C-5.55299539 4.69124424 -5.55299539 4.69124424 -3.5 2.125 C-3.005 1.75375 -2.51 1.3825 -2 1 C-1.67 3.31 -1.34 5.62 -1 8 C-0.34 8 0.32 8 1 8 C0.67 5.36 0.34 2.72 0 0 Z " fill="#585858" transform="translate(83,29)"/>
<path d="M0 0 C0 0.66 0 1.32 0 2 C0.87011719 1.98259766 0.87011719 1.98259766 1.7578125 1.96484375 C6.2998246 1.91237826 10.52713569 2.08248937 15 3 C13 5 13 5 10.6171875 5.1953125 C9.71226563 5.17210937 8.80734375 5.14890625 7.875 5.125 C6.96492188 5.10695313 6.05484375 5.08890625 5.1171875 5.0703125 C4.41851562 5.04710937 3.71984375 5.02390625 3 5 C3.2475 6.051875 3.495 7.10375 3.75 8.1875 C4 12 4 12 2.1875 14.9375 C0 17 0 17 -2 17 C-2.33 15.02 -2.66 13.04 -3 11 C-2.34 10.67 -1.68 10.34 -1 10 C-1 8.68 -1 7.36 -1 6 C-2.65 6.66 -4.3 7.32 -6 8 C-6.66 6.68 -7.32 5.36 -8 4 C-8.20086443 7.71599191 -8.1519437 8.77208445 -6 12 C-5.875 14.6875 -5.875 14.6875 -6 17 C-10.875 15.25 -10.875 15.25 -12 13 C-12.13415472 10.3276379 -12.04318541 7.67749512 -12 5 C-13.98 7.97 -13.98 7.97 -16 11 C-17.32 10.34 -18.64 9.68 -20 9 C-18.37660195 7.29115995 -16.70680947 5.62553283 -15 4 C-14.34 4 -13.68 4 -13 4 C-13 3.34 -13 2.68 -13 2 C-11.58461283 1.66127487 -10.16762037 1.32925376 -8.75 1 C-7.56664063 0.7215625 -7.56664063 0.7215625 -6.359375 0.4375 C-4 0 -4 0 0 0 Z " fill="#B4B4B4" transform="translate(90,1)"/>
<path d="M0 0 C5.8437994 0.50702598 10.49177629 1.69298834 15.8125 4.125 C16.50029541 4.4341333 17.18809082 4.7432666 17.89672852 5.06176758 C23.84836315 7.80424864 30.01573733 10.69768876 35 15 C35.78515625 17.20703125 35.78515625 17.20703125 36 19 C33 19 33 19 31.3125 17.5 C30.879375 17.005 30.44625 16.51 30 16 C29.34 16.33 28.68 16.66 28 17 C28.4640625 17.86625 28.4640625 17.86625 28.9375 18.75 C29.92583364 20.84294184 30.5168613 22.74535275 31 25 C27.73069721 23.62381913 26.20889661 22.24508345 24.25 19.3125 C17.82966453 10.48653015 9.60229598 5.81578563 0 1 C0 0.67 0 0.34 0 0 Z " fill="#0C0C0C" transform="translate(104,5)"/>
<path d="M0 0 C0.99 0.33 1.98 0.66 3 1 C3.73046875 2.84765625 3.73046875 2.84765625 4.1875 5.0625 C4.34605469 5.79597656 4.50460938 6.52945313 4.66796875 7.28515625 C4.83232422 8.13400391 4.83232422 8.13400391 5 9 C5.66 8.34 6.32 7.68 7 7 C7.96385448 9.6024071 8.16344747 10.63735092 7 13.21875 C5.75767697 16.67396092 6.00758776 19.17511883 6.375 22.8125 C6.48585938 23.97394531 6.59671875 25.13539062 6.7109375 26.33203125 C6.80632812 27.21246094 6.90171875 28.09289062 7 29 C2.2890625 30.1171875 2.2890625 30.1171875 -0.3125 29.0625 C-1.1478125 28.5365625 -1.1478125 28.5365625 -2 28 C-2.26252625 23.66831683 -1.29243536 20.1196377 0 16 C0.66 16.33 1.32 16.66 2 17 C2.33 14.03 2.66 11.06 3 8 C2.34 8 1.68 8 1 8 C0.67 5.36 0.34 2.72 0 0 Z " fill="#989898" transform="translate(83,39)"/>
<path d="M0 0 C3.39739506 1.40581865 5.05036999 2.88714536 7 6 C7.81172632 10.09921789 7.97471253 14.2807154 5.875 17.984375 C4.5 19.625 4.5 19.625 2 22 C2.66 22.66 3.32 23.32 4 24 C1.69 24 -0.62 24 -3 24 C-2.649375 23.05125 -2.29875 22.1025 -1.9375 21.125 C-0.64973223 18.12939828 -0.64973223 18.12939828 -2 16 C-2.99 16 -3.98 16 -5 16 C-4.34 14.02 -3.68 12.04 -3 10 C-2.67 10.99 -2.34 11.98 -2 13 C0.37339853 11.14255768 0.9940468 10.02152312 1.8125 7.0625 C2.00613718 3.89975932 1.70401547 2.60614131 0 0 Z " fill="#1F1F1F" transform="translate(91,154)"/>
<path d="M0 0 C0.99 0.66 1.98 1.32 3 2 C3.1875 4.625 3.1875 4.625 3 7 C3.99 6.67 4.98 6.34 6 6 C6.33 6.33 6.66 6.66 7 7 C6.96777662 8.99784929 6.93190957 10.99620053 6.83984375 12.9921875 C6.86157003 15.31970465 6.86157003 15.31970465 9 18 C8.01 19.98 7.02 21.96 6 24 C5.01 23.34 4.02 22.68 3 22 C3 21.01 3 20.02 3 19 C2.34 19 1.68 19 1 19 C-1.9549163 12.97197075 -2.13221073 10.39663219 0 4 C0 2.68 0 1.36 0 0 Z " fill="#969696" transform="translate(83,80)"/>
<path d="M0 0 C0.99 0.33 1.98 0.66 3 1 C3 1.66 3 2.32 3 3 C3.32097656 3.60070312 3.64195313 4.20140625 3.97265625 4.8203125 C5.81895746 8.73755994 5.65844455 12.77664354 5 17 C3.62862663 19.72635582 2.35374905 20.91372243 0 23 C-2.171875 23.65234375 -2.171875 23.65234375 -4 24 C-4.46928393 17.28663274 -4.32110679 14.29684058 0 9 C0.0106444 6.22181137 -0.49576862 3.75035299 -1 1 C-0.67 0.67 -0.34 0.34 0 0 Z " fill="#F0EFF0" transform="translate(93,112)"/>
<path d="M0 0 C2.97 0.495 2.97 0.495 6 1 C5.67 1.99 5.34 2.98 5 4 C5 4.66 5 5.32 5 6 C5.33 6.33 5.66 6.66 6 7 C6.66 5.35 7.32 3.7 8 2 C9.5625 3.125 9.5625 3.125 11 5 C10.86138651 8.32672378 10.58989219 10.29212937 8.4375 12.875 C7.7259375 13.431875 7.7259375 13.431875 7 14 C6.34 13.67 5.68 13.34 5 13 C5 12.01 5 11.02 5 10 C4.34 9.67 3.68 9.34 3 9 C2.67 9.99 2.34 10.98 2 12 C-0.0625 13.1875 -0.0625 13.1875 -2 14 C-4.23079726 11.58330297 -4.96940652 10.24984673 -5.375 6.9375 C-5 4 -5 4 -3.5 2.125 C-3.005 1.75375 -2.51 1.3825 -2 1 C-1.34 2.98 -0.68 4.96 0 7 C0 6.01 0 5.02 0 4 C0 2.68 0 1.36 0 0 Z " fill="#181818" transform="translate(83,112)"/>
<path d="M0 0 C0.66 0.33 1.32 0.66 2 1 C1.67 1.66 1.34 2.32 1 3 C0.58297878 5.9157691 0.58297878 5.9157691 1 9 C1.680625 9.61875 2.36125 10.2375 3.0625 10.875 C5 13 5 13 5.0078125 14.953125 C4.70966863 16.97468588 4.35696895 18.98799321 4 21 C4.33 21.66 4.66 22.32 5 23 C1.06863911 21.68954637 -1.31206827 20.16791954 -4 17 C-5.20643566 13.38069302 -5.32268559 10.80768995 -5 7 C-3.50254139 4.39152371 -2.12971098 2.12971098 0 0 Z " fill="#F2F2F2" transform="translate(78,113)"/>
<path d="M0 0 C0.66 0 1.32 0 2 0 C2.2475 1.2375 2.495 2.475 2.75 3.75 C3.6710758 7.51439673 4.91347366 9.53077893 8 12 C7.34 12.66 6.68 13.32 6 14 C5.83318891 17.08347826 5.83318891 17.08347826 6 20 C2.82966958 19.66032174 2.00117393 19.00130809 -0.1875 16.5625 C-3.09695025 12.4491393 -3.3441769 10.07660923 -3 5 C-1.625 2.0625 -1.625 2.0625 0 0 Z " fill="#F9F9F9" transform="translate(76,74)"/>
<path d="M0 0 C0 2.12591892 -0.06957524 4.25235425 -0.1875 6.375 C-0.29242546 9.96114232 -0.29242546 9.96114232 1.5 12.4375 C3.64068438 16.09450248 3.21328869 18.80532239 3 23 C-0.46628726 22.03714243 -1.93417008 21.07650505 -4.3125 18.3125 C-6.30960373 14.39225935 -6.61016653 12.34743651 -6 8 C-4.61535193 4.74543 -3.27818651 1.63909326 0 0 Z " fill="#101010" transform="translate(79,154)"/>
<path d="M0 0 C1 2 1 2 0.875 5.4375 C0.65422081 8.90561266 0.65422081 8.90561266 2.375 10.8125 C2.91125 11.204375 3.4475 11.59625 4 12 C4.66 12.66 5.32 13.32 6 14 C5.34 14 4.68 14 4 14 C4 16.64 4 19.28 4 22 C0.08774328 20.73115998 -2.0949669 19.71481455 -4 16 C-5.2991255 11.09323103 -5.56539377 8.05540171 -3.125 3.5 C-1 1 -1 1 0 0 Z " fill="#0E0E0E" transform="translate(78,5)"/>
<path d="M0 0 C3.64092219 1.91627484 5.49725632 3.15434231 7 7 C7.68541776 11.90153396 7.69547688 15.80090193 5.1875 20.125 C3 22 3 22 0 22 C-1.76507147 16.79303915 -1.76507147 16.79303915 -2 14 C-0.0625 11.375 -0.0625 11.375 2 9 C1.80189085 5.69818088 1.04347269 3.13041807 0 0 Z " fill="#F5F4F5" transform="translate(91,45)"/>
<path d="M0 0 C3.16115776 1.36983503 3.9927092 1.9890638 6 5 C6.78213668 9.30175173 6.94852499 13.3531744 4.7265625 17.2109375 C3.23613448 18.99218074 1.82948662 20.56864 0 22 C-0.66 22 -1.32 22 -2 22 C-2.144375 20.88625 -2.28875 19.7725 -2.4375 18.625 C-2.78372035 15.17857953 -2.78372035 15.17857953 -4 13 C-3.154375 12.34 -2.30875 11.68 -1.4375 11 C1.18910206 8.3696504 1.18910206 8.3696504 1.109375 5.88671875 C0.84225031 3.90788716 0.42966217 1.95000525 0 0 Z " fill="#0B0B0B" transform="translate(92,5)"/>
<path d="M0 0 C0.66 0.33 1.32 0.66 2 1 C1.67 1.66 1.34 2.32 1 3 C0.58297878 5.9157691 0.58297878 5.9157691 1 9 C2.87501931 11.37719693 2.87501931 11.37719693 5 13 C4.34 14.65 3.68 16.3 3 18 C2.34 18 1.68 18 1 18 C0.67 18.66 0.34 19.32 0 20 C-3.6116409 17.11068728 -4.89690265 15.72168143 -5.5625 11.0625 C-5.28612817 6.50236481 -3.22081792 3.22081792 0 0 Z " fill="#F8F8F8" transform="translate(78,46)"/>
<path d="M0 0 C1.98 0 3.96 0 6 0 C6 1.32 6 2.64 6 4 C6.66 4 7.32 4 8 4 C9.20853081 9.31753555 9.20853081 9.31753555 8.3125 12.25 C6.76672508 14.31103322 5.37031549 15.0518738 3 16 C0.74045071 13.55215494 0.02560799 12.31369786 -0.25 8.9375 C0 6 0 6 1 3 C0.67 2.01 0.34 1.02 0 0 Z " fill="#686868" transform="translate(78,43)"/>
<path d="M0 0 C2.97 0.495 2.97 0.495 6 1 C5.67 1.99 5.34 2.98 5 4 C5.99 3.67 6.98 3.34 8 3 C8.66 3.66 9.32 4.32 10 5 C8.68 7.97 7.36 10.94 6 14 C5.01 13.67 4.02 13.34 3 13 C3.2784375 12.0409375 3.2784375 12.0409375 3.5625 11.0625 C3.706875 10.381875 3.85125 9.70125 4 9 C3.67 8.67 3.34 8.34 3 8 C2.34 8 1.68 8 1 8 C1.33 9.65 1.66 11.3 2 13 C1.01 13 0.02 13 -1 13 C-2 12 -2 12 -2.0625 9.4375 C-2.041875 8.633125 -2.02125 7.82875 -2 7 C-2.66 7 -3.32 7 -4 7 C-4.33 5.68 -4.66 4.36 -5 3 C-2.525 3.495 -2.525 3.495 0 4 C0 2.68 0 1.36 0 0 Z " fill="#6B6B6B" transform="translate(83,106)"/>
<path d="M0 0 C-2.63692767 1.75795178 -4.62534421 2.64558759 -7.5625 3.6875 C-12.55055638 5.61553351 -16.53136157 8.28525383 -20.7734375 11.51171875 C-22.91880748 12.94572921 -24.48016694 13.56852174 -27 14 C-27 13.34 -27 12.68 -27 12 C-27.66 12 -28.32 12 -29 12 C-29 11.01 -29 10.02 -29 9 C-26.5034256 7.86684609 -24.00316228 6.74343421 -21.5 5.625 C-20.80390625 5.30789062 -20.1078125 4.99078125 -19.390625 4.6640625 C-13.17765186 1.9027411 -6.91510011 -0.43219376 0 0 Z " fill="#151515" transform="translate(72,4)"/>
<path d="M0 0 C2.2477975 2.05233685 3.0022242 3.00667261 4 6 C4.99 6.33 5.98 6.66 7 7 C7.9375 8.8125 7.9375 8.8125 8 11 C6.375 13.25 6.375 13.25 4 15 C1.25 15.25 1.25 15.25 -1 15 C-1.19491452 13.54263913 -1.38069358 12.08405407 -1.5625 10.625 C-1.66691406 9.81289062 -1.77132812 9.00078125 -1.87890625 8.1640625 C-2 6 -2 6 -1 4 C-0.64830932 2.67139075 -0.31229724 1.33841672 0 0 Z " fill="#323232" transform="translate(83,163)"/>
<path d="M0 0 C0.33 1.32 0.66 2.64 1 4 C4.93075644 3.42547254 4.93075644 3.42547254 8 1 C8.19294408 5.82360189 7.75747614 9.49646738 6 14 C5.34 13.01 4.68 12.02 4 11 C4 12.65 4 14.3 4 16 C4.66 16.33 5.32 16.66 6 17 C5.34 17.99 4.68 18.98 4 20 C4 19.01 4 18.02 4 17 C3.34 16.67 2.68 16.34 2 16 C1.74280183 13.97456444 1.49157878 11.94649776 1.34375 9.91015625 C1.14523788 7.76477844 1.14523788 7.76477844 -1 6 C-1.1875 3.4375 -1.1875 3.4375 -1 1 C-0.67 0.67 -0.34 0.34 0 0 Z " fill="#777777" transform="translate(82,138)"/>
<path d="M0 0 C0.66 0.66 1.32 1.32 2 2 C1.34773438 2.35191406 0.69546875 2.70382813 0.0234375 3.06640625 C-5.23503185 6.03689852 -9.18330318 8.76622707 -12.74609375 13.6796875 C-13.36677734 14.33324219 -13.36677734 14.33324219 -14 15 C-14.99 15 -15.98 15 -17 15 C-17 14.34 -17 13.68 -17 13 C-17.66 12.67 -18.32 12.34 -19 12 C-18 9 -18 9 -15.48828125 7.4296875 C-14.44027344 6.91664062 -13.39226563 6.40359375 -12.3125 5.875 C-11.27738281 5.35679688 -10.24226563 4.83859375 -9.17578125 4.3046875 C-6.07166706 3.02944256 -3.31946218 2.4080898 0 2 C0 1.34 0 0.68 0 0 Z " fill="#F1F1F1" transform="translate(72,3)"/>
<path d="M0 0 C1.9375 0.375 1.9375 0.375 4 1 C4.33 1.66 4.66 2.32 5 3 C5.99 3.33 6.98 3.66 8 4 C8.625 5.6875 8.625 5.6875 9 8 C9.2475 8.969375 9.495 9.93875 9.75 10.9375 C10.05363723 14.65705606 9.29275154 16.11283139 7 19 C6.34 19 5.68 19 5 19 C4.45627049 15.94152152 4 13.11227195 4 10 C3.67 9.38125 3.34 8.7625 3 8.125 C1.81304779 5.60272655 1.84695465 3.75481627 2 1 C1.34 0.67 0.68 0.34 0 0 Z " fill="#DEDEDE" transform="translate(84,148)"/>
<path d="M0 0 C0.33 0 0.66 0 1 0 C0.90234375 2.97851562 0.90234375 2.97851562 0.8046875 5.95703125 C0.86745538 8.31359719 0.86745538 8.31359719 3 11 C2.01 12.98 1.02 14.96 0 17 C-0.99 16.34 -1.98 15.68 -3 15 C-3 14.01 -3 13.02 -3 12 C-3.66 12 -4.32 12 -5 12 C-3.86279638 7.53866273 -2.64540851 3.79558613 0 0 Z " fill="#6C6C6C" transform="translate(89,87)"/>
<path d="M0 0 C3.43742918 -0.05802698 6.87473253 -0.09360486 10.3125 -0.125 C11.28896484 -0.14175781 12.26542969 -0.15851562 13.27148438 -0.17578125 C14.20927734 -0.18222656 15.14707031 -0.18867187 16.11328125 -0.1953125 C16.97735596 -0.20578613 17.84143066 -0.21625977 18.73168945 -0.22705078 C21 0 21 0 24 2 C23.67 2.66 23.34 3.32 23 4 C20.03 3.67 17.06 3.34 14 3 C14 2.34 14 1.68 14 1 C7.07 2.485 7.07 2.485 0 4 C0 2.68 0 1.36 0 0 Z " fill="#F5F5F5" transform="translate(76,0)"/>
<path d="M0 0 C0.66 0.66 1.32 1.32 2 2 C1.77240243 4.01586418 1.53719085 6.032258 1.21484375 8.03515625 C0.87065345 10.07886404 0.87065345 10.07886404 1.625 12.3125 C1.74875 12.869375 1.8725 13.42625 2 14 C0.5625 15.75 0.5625 15.75 -1 17 C-1.66 16.34 -2.32 15.68 -3 15 C-3 13.68 -3 12.36 -3 11 C-3.66 11 -4.32 11 -5 11 C-4.505 10.0409375 -4.505 10.0409375 -4 9.0625 C-2.92728775 7.23205433 -2.92728775 7.23205433 -3 6 C-3 4.33333333 -3 2.66666667 -3 1 C-2.34 1.66 -1.68 2.32 -1 3 C-0.67 2.01 -0.34 1.02 0 0 Z " fill="#A6A6A6" transform="translate(89,20)"/>
<path d="M0 0 C1.98 0 3.96 0 6 0 C8.22597431 4.32100896 8.13071827 7.30317025 7 12 C5.4375 13.9375 5.4375 13.9375 4 15 C2 14 2 14 1.1875 11.625 C1.125625 10.75875 1.06375 9.8925 1 9 C2.4375 7.375 2.4375 7.375 4 6 C4 5.01 4 4.02 4 3 C3.01 3.66 2.02 4.32 1 5 C0.67 3.35 0.34 1.7 0 0 Z " fill="#252525" transform="translate(86,70)"/>
<path d="M0 0 C1.32 0.33 2.64 0.66 4 1 C2.9171875 1.7425 2.9171875 1.7425 1.8125 2.5 C-1.65888511 5.58567566 -3.7163468 8.99631864 -6 13 C-6.99 12.01 -7.98 11.02 -9 10 C-9.99 11.485 -9.99 11.485 -11 13 C-11.66 13 -12.32 13 -13 13 C-13.33 13.99 -13.66 14.98 -14 16 C-14.66 15.67 -15.32 15.34 -16 15 C-11.18309801 9.00449433 -7.15921168 4.94039051 0 2 C0 1.34 0 0.68 0 0 Z " fill="#2A2A2A" transform="translate(73,3)"/>
<path d="M0 0 C0.99 1.32 1.98 2.64 3 4 C6.0745356 3.2236068 6.0745356 3.2236068 8 1 C8.2610462 6.74301634 7.12687408 9.30968888 4 14 C1.77077045 11.77077045 1.11871047 9.90864722 0 7 C-0.33 6.67 -0.66 6.34 -1 6 C-1.125 3.5 -1.125 3.5 -1 1 C-0.67 0.67 -0.34 0.34 0 0 Z " fill="#6E6E6E" transform="translate(82,4)"/>
<path d="M0 0 C6.61085476 0.48969295 11.94977014 2.33442742 18 5 C17.67 6.65 17.34 8.3 17 10 C16.27554688 9.60167969 15.55109375 9.20335937 14.8046875 8.79296875 C9.90866547 6.10994868 5.02081186 3.44255712 0 1 C0 0.67 0 0.34 0 0 Z " fill="#1F1F1F" transform="translate(104,5)"/>
<path d="M0 0 C0.12375 0.639375 0.2475 1.27875 0.375 1.9375 C0.58125 2.618125 0.7875 3.29875 1 4 C1.66 4.33 2.32 4.66 3 5 C0.625 6.5625 0.625 6.5625 -2 8 C-2.66 7.67 -3.32 7.34 -4 7 C-4.33 7.99 -4.66 8.98 -5 10 C-5.33 9.34 -5.66 8.68 -6 8 C-8.02463255 7.34786708 -8.02463255 7.34786708 -10 7 C-10.33 8.32 -10.66 9.64 -11 11 C-11.99 10.67 -12.98 10.34 -14 10 C-13.34 9.34 -12.68 8.68 -12 8 C-11.67 7.01 -11.34 6.02 -11 5 C-11.99 4.01 -12.98 3.02 -14 2 C-12.35 1.67 -10.7 1.34 -9 1 C-8.34 2.32 -7.68 3.64 -7 5 C-5.7934375 4.7215625 -5.7934375 4.7215625 -4.5625 4.4375 C-3.2940625 4.2209375 -3.2940625 4.2209375 -2 4 C-1.67 4.33 -1.34 4.66 -1 5 C-0.67 3.35 -0.34 1.7 0 0 Z " fill="#DCDCDC" transform="translate(90,63)"/>
<path d="M0 0 C1.35439668 2.70879335 1.06501451 5.00933268 1 8 C2.32 8.33 3.64 8.66 5 9 C4 12 4 12 1.9375 13.1875 C1.298125 13.455625 0.65875 13.72375 0 14 C-2.20409407 11.61223142 -2.96644557 10.26843543 -3.375 7 C-2.96644557 3.73156457 -2.20409407 2.38776858 0 0 Z " fill="#ECECEC" transform="translate(81,96)"/>
<path d="M0 0 C0.33 0 0.66 0 1 0 C1.268125 0.969375 1.53625 1.93875 1.8125 2.9375 C2.204375 3.948125 2.59625 4.95875 3 6 C3.99 6.33 4.98 6.66 6 7 C5.49396008 9.16874252 5.00016187 10.99967627 4 13 C0.83884224 11.63016497 0.0072908 11.0109362 -2 8 C-2.25 4.9375 -2.25 4.9375 -2 2 C-1.34 1.34 -0.68 0.68 0 0 Z " fill="#1D1D1D" transform="translate(80,72)"/>
<path d="M0 0 C2.91312716 1.69149319 3.87594842 2.61957514 4.9375 5.875 C5.01124945 9.56247264 4.2732702 11.13736346 2 14 C1.34 14 0.68 14 0 14 C0 10.7 0 7.4 0 4 C-0.99 4.495 -0.99 4.495 -2 5 C-1.125 1.125 -1.125 1.125 0 0 Z " fill="#E8E8E8" transform="translate(89,137)"/>
<path d="M0 0 C5.19822672 1.36144033 8.09543873 3.46730171 12 7 C11.34 8.65 10.68 10.3 10 12 C9.34 12 8.68 12 8 12 C6.81640625 10.390625 6.81640625 10.390625 5.5625 8.25 C3.83817706 5.37272741 2.08586484 2.63477663 0 0 Z " fill="#151515" transform="translate(97,5)"/>
<path d="M0 0 C5.42096702 1.35524176 10.0778687 3.36634013 15 6 C15 6.33 15 6.66 15 7 C8.74892565 6.57045059 2.95795479 5.98598493 -3 4 C-3 3.34 -3 2.68 -3 2 C-2.01 2 -1.02 2 0 2 C0 1.34 0 0.68 0 0 Z " fill="#1B1B1B" transform="translate(61,170)"/>
<path d="M0 0 C3.35810395 1.38956025 5.18586552 2.82526467 7 6 C7.1875 8.75 7.1875 8.75 7 11 C5.125 12.0625 5.125 12.0625 3 13 C2.34 12.67 1.68 12.34 1 12 C1.20625 10.7625 1.4125 9.525 1.625 8.25 C2.06107124 4.88090165 2.03403639 2.87158079 0 0 Z " fill="#161616" transform="translate(91,154)"/>
<path d="M0 0 C0.66 0.33 1.32 0.66 2 1 C2.38133299 2.9914056 2.71325582 4.99279077 3 7 C3.33 7.66 3.66 8.32 4 9 C4.0396713 10.66619446 4.04384447 12.33391013 4 14 C1.53199953 12.84826645 -0.04783565 11.95216435 -2 10 C-2.31537716 5.66356399 -2.44897847 3.67346771 0 0 Z " fill="#ECECEC" transform="translate(80,154)"/>
<path d="M0 0 C0.66 0.33 1.32 0.66 2 1 C1.67 1.66 1.34 2.32 1 3 C0.95977609 5.3329866 0.95679753 7.66706666 1 10 C0.38125 10.268125 -0.2375 10.53625 -0.875 10.8125 C-3.2995233 11.95556848 -3.2995233 11.95556848 -5 15 C-5.42277492 8.86976372 -4.99795398 5.96715495 -1 1 C-0.67 0.67 -0.34 0.34 0 0 Z " fill="#EBEBEB" transform="translate(78,46)"/>
<path d="M0 0 C0.66 0.33 1.32 0.66 2 1 C1.95875 1.763125 1.9175 2.52625 1.875 3.3125 C1.77919176 6.22718416 1.77919176 6.22718416 4 9 C3.625 11.1875 3.625 11.1875 3 13 C1.0625 12.625 1.0625 12.625 -1 12 C-2.50934217 8.98131566 -2.17510672 6.32702771 -2 3 C-1.34 2.01 -0.68 1.02 0 0 Z " fill="#EAEAEA" transform="translate(80,138)"/>
<path d="M0 0 C-0.886875 0.556875 -1.77375 1.11375 -2.6875 1.6875 C-5.84279378 3.77853792 -8.39868111 6.24566235 -11 9 C-11.66 8.67 -12.32 8.34 -13 8 C-15.62387135 9.39092892 -15.62387135 9.39092892 -18 11 C-16.55898828 7.42071281 -14.85719199 5.92599226 -11.625 3.875 C-10.85414062 3.37742187 -10.08328125 2.87984375 -9.2890625 2.3671875 C-3.41809291 -1.1393643 -3.41809291 -1.1393643 0 0 Z " fill="#E1E1E1" transform="translate(78,113)"/>
<path d="M0 0 C0.33 0 0.66 0 1 0 C1.309375 0.94875 1.61875 1.8975 1.9375 2.875 C2.87394742 5.86080408 2.87394742 5.86080408 4 8 C4.0396713 9.66619446 4.04384447 11.33391013 4 13 C-0.875 11.25 -0.875 11.25 -2 9 C-2.1875 5.5 -2.1875 5.5 -2 2 C-1.34 1.34 -0.68 0.68 0 0 Z " fill="#EDEDED" transform="translate(80,5)"/>
<path d="M0 0 C0.33 1.32 0.66 2.64 1 4 C-0.65 5.32 -2.3 6.64 -4 8 C-4.66 7.67 -5.32 7.34 -6 7 C-4.02 4.69 -2.04 2.38 0 0 Z M-5 9 C-7 12 -7 12 -10 13 C-12.33299825 13.03954234 -14.66708189 13.04401732 -17 13 C-9 7.66666667 -9 7.66666667 -5 9 Z " fill="#1F1F1F" transform="translate(112,164)"/>
<path d="M0 0 C0.33 0 0.66 0 1 0 C1.309375 1.11375 1.61875 2.2275 1.9375 3.375 C2.82326483 6.7945155 2.82326483 6.7945155 4 9 C3.5625 11.125 3.5625 11.125 3 13 C-0.875 11.25 -0.875 11.25 -2 9 C-2.25860135 4.94857881 -2.30441554 3.45662331 0 0 Z " fill="#151515" transform="translate(80,30)"/>
<path d="M0 0 C4 2 4 2 5.9375 3.0625 C8.26847774 4.12203534 10.48156522 4.58026087 13 5 C13 5.66 13 6.32 13 7 C9.7 7 6.4 7 3 7 C2.67 5.68 2.34 4.36 2 3 C1.01 2.67 0.02 2.34 -1 2 C-0.67 1.34 -0.34 0.68 0 0 Z " fill="#F7F7F7" transform="translate(74,173)"/>
<path d="M0 0 C0.33 0 0.66 0 1 0 C2.45184478 4.53701494 3.23509196 8.18061476 3 13 C-0.875 11.25 -0.875 11.25 -2 9 C-2.25860135 4.94857881 -2.30441554 3.45662331 0 0 Z " fill="#101010" transform="translate(80,46)"/>
<path d="M0 0 C2.0625 1.625 2.0625 1.625 4 4 C3.93088668 7.38655269 3.62064369 9.25522758 1.4375 11.875 C0.7259375 12.431875 0.7259375 12.431875 0 13 C-0.66 12.67 -1.32 12.34 -2 12 C-2.22184509 8.11771086 -1.53447513 5.54847374 0 2 C0 1.34 0 0.68 0 0 Z " fill="#1A1A1A" transform="translate(90,46)"/>
<path d="M0 0 C0.99 0.66 1.98 1.32 3 2 C1.68 4.97 0.36 7.94 -1 11 C-1.99 10.67 -2.98 10.34 -4 10 C-3.7215625 9.0409375 -3.7215625 9.0409375 -3.4375 8.0625 C-3.293125 7.381875 -3.14875 6.70125 -3 6 C-3.33 5.67 -3.66 5.34 -4 5 C-4 4.01 -4 3.02 -4 2 C-2.68 1.34 -1.36 0.68 0 0 Z " fill="#6D6D6D" transform="translate(90,109)"/>
<path d="M0 0 C0.185625 0.9590625 0.185625 0.9590625 0.375 1.9375 C0.684375 2.9584375 0.684375 2.9584375 1 4 C1.66 4.33 2.32 4.66 3 5 C2.70703125 7.01822917 2.4140625 9.03645833 2.12109375 11.0546875 C1.8315703 13.08140667 1.8315703 13.08140667 3 15 C2.67 15.66 2.34 16.32 2 17 C1.34 17 0.68 17 0 17 C-0.36402369 15.56496445 -0.71586591 14.12683494 -1.0625 12.6875 C-1.25972656 11.88699219 -1.45695312 11.08648437 -1.66015625 10.26171875 C-2 8 -2 8 -1 5 C-0.65179959 3.33637583 -0.31595508 1.67004829 0 0 Z " fill="#D7D7D7" transform="translate(82,20)"/>
<path d="M0 0 C0.99 0.33 1.98 0.66 3 1 C2.38909774 7.47556391 2.38909774 7.47556391 0.5625 9.9375 C-1 11 -1 11 -3 11 C-3.6875 8.1875 -3.6875 8.1875 -4 5 C-2.625 3.25 -2.625 3.25 -1 2 C-0.67 1.34 -0.34 0.68 0 0 Z " fill="#EBEBEB" transform="translate(91,7)"/>
<path d="M0 0 C1.5625 1.125 1.5625 1.125 3 3 C2.86138651 6.32672378 2.58989219 8.29212937 0.4375 10.875 C-0.2740625 11.431875 -0.2740625 11.431875 -1 12 C-1.66 11.67 -2.32 11.34 -3 11 C-3.39253254 6.55129785 -2.15305957 3.85756507 0 0 Z " fill="#101010" transform="translate(91,114)"/>
<path d="M0 0 C2.875 1.0625 2.875 1.0625 6 3 C7.4375 6.5625 7.4375 6.5625 8 10 C7.67 10.66 7.34 11.32 7 12 C6.34 12 5.68 12 5 12 C4.67 9.69 4.34 7.38 4 5 C3.01 5.99 2.02 6.98 1 8 C1 7.01 1 6.02 1 5 C0.34 4.67 -0.32 4.34 -1 4 C-0.67 2.68 -0.34 1.36 0 0 Z " fill="#111111" transform="translate(77,92)"/>
<path d="M0 0 C0 3.74161103 -0.51338171 7.28953557 -1 11 C-2.65 11.33 -4.3 11.66 -6 12 C-5.73781251 7.5428126 -5.42288711 5.48477302 -2.4375 2.0625 C-1.633125 1.381875 -0.82875 0.70125 0 0 Z " fill="#070707" transform="translate(79,154)"/>
<path d="M0 0 C0.99 0.33 1.98 0.66 3 1 C3 1.66 3 2.32 3 3 C3.33 3.598125 3.66 4.19625 4 4.8125 C5.16753352 7.36647956 5.15425613 9.22338963 5 12 C3.35 11.67 1.7 11.34 0 11 C0.020625 10.0925 0.04125 9.185 0.0625 8.25 C0.01073123 5.5580237 -0.33569365 3.56232449 -1 1 C-0.67 0.67 -0.34 0.34 0 0 Z " fill="#E4E4E4" transform="translate(93,112)"/>
<path d="M0 0 C0.99 0.33 1.98 0.66 3 1 C3.73046875 2.84765625 3.73046875 2.84765625 4.1875 5.0625 C4.34605469 5.79597656 4.50460938 6.52945313 4.66796875 7.28515625 C4.83232422 8.13400391 4.83232422 8.13400391 5 9 C5.66 8.34 6.32 7.68 7 7 C7.6875 8.8125 7.6875 8.8125 8 11 C6.5625 12.75 6.5625 12.75 5 14 C4.34 13.67 3.68 13.34 3 13 C3 11.35 3 9.7 3 8 C2.34 8 1.68 8 1 8 C0.67 5.36 0.34 2.72 0 0 Z " fill="#C6C6C6" transform="translate(83,39)"/>
<path d="M0 0 C2.97 0.495 2.97 0.495 6 1 C5 4 5 4 3 7 C1.9728867 9.65337601 1.82596574 10.58231777 2.9375 13.25 C3.288125 13.8275 3.63875 14.405 4 15 C2.68 14.67 1.36 14.34 0 14 C-0.33 12.35 -0.66 10.7 -1 9 C-0.34 9 0.32 9 1 9 C0.67 6.03 0.34 3.06 0 0 Z " fill="#E4E4E4" transform="translate(83,128)"/>
<path d="M0 0 C3.57967992 1.65215996 6.77982952 3.73124352 10 6 C10 6.33 10 6.66 10 7 C1.42857143 6 1.42857143 6 -2 5 C-2 4.01 -2 3.02 -2 2 C-1.34 2 -0.68 2 0 2 C0 1.34 0 0.68 0 0 Z " fill="#E9E9E9" transform="translate(68,103)"/>
<path d="M0 0 C4.42761914 1.39153744 6.9556255 3.52071486 10 7 C10 7.66 10 8.32 10 9 C9.01 9.33 8.02 9.66 7 10 C5.79117904 12.00016466 5.79117904 12.00016466 5 14 C4.83564453 12.98679687 4.83564453 12.98679687 4.66796875 11.953125 C4.50941406 11.06109375 4.35085937 10.1690625 4.1875 9.25 C3.96126953 7.92742187 3.96126953 7.92742187 3.73046875 6.578125 C2.94585752 3.8089089 1.85404641 2.1740599 0 0 Z " fill="#1C1C1C" transform="translate(93,71)"/>
<path d="M0 0 C0.66 0 1.32 0 2 0 C4.34904741 2.9580597 5.0325687 4.4354759 4.8125 8.25 C4.4103125 9.61125 4.4103125 9.61125 4 11 C3.01 11.495 3.01 11.495 2 12 C1.01 11.34 0.02 10.68 -1 10 C-0.649375 8.906875 -0.29875 7.81375 0.0625 6.6875 C1.33039454 3.09079627 1.33039454 3.09079627 0 0 Z " fill="#171717" transform="translate(89,29)"/>
<path d="M0 0 C0.99 0.99 1.98 1.98 3 3 C1.6875 5.5 1.6875 5.5 0 8 C-0.99 8 -1.98 8 -3 8 C-3 7.34 -3 6.68 -3 6 C-3.66 5.67 -4.32 5.34 -5 5 C-4 2 -4 2 -1.9375 0.8125 C-1.298125 0.544375 -0.65875 0.27625 0 0 Z " fill="#F0F0F0" transform="translate(58,10)"/>
<path d="M0 0 C0.33 0 0.66 0 1 0 C1.38281159 5.23175837 0.21854707 8.37802694 -2 13 C-2.99 12.34 -3.98 11.68 -5 11 C-4.34 8.03 -3.68 5.06 -3 2 C-2.34 2 -1.68 2 -1 2 C-0.67 1.34 -0.34 0.68 0 0 Z " fill="#656565" transform="translate(89,129)"/>
<path d="M0 0 C0.33 0.99 0.66 1.98 1 3 C0.01 3.495 0.01 3.495 -1 4 C-0.67 2.68 -0.34 1.36 0 0 Z M-2 4 C-1.67 4.66 -1.34 5.32 -1 6 C-0.01 6 0.98 6 2 6 C2 6.66 2 7.32 2 8 C-2.1196377 9.29243536 -5.66831683 10.26252625 -10 10 C-7.38485683 7.87961365 -4.80362384 5.86908256 -2 4 Z " fill="#E1E0E1" transform="translate(103,100)"/>
<path d="M0 0 C0.66 0.33 1.32 0.66 2 1 C1.01 1.33 0.02 1.66 -1 2 C-1.309375 2.99 -1.61875 3.98 -1.9375 5 C-2.288125 5.99 -2.63875 6.98 -3 8 C-4.9375 8.5625 -4.9375 8.5625 -7 9 C-8.77148372 11.47933197 -8.77148372 11.47933197 -10 14 C-10.33 13.34 -10.66 12.68 -11 12 C-8.33646628 6.11802971 -5.4193931 3.43923024 0 0 Z " fill="#151515" transform="translate(77,71)"/>
<path d="M0 0 C2.97 0.495 2.97 0.495 6 1 C5.67 1.99 5.34 2.98 5 4 C5 4.66 5 5.32 5 6 C5 6.99 5 7.98 5 9 C4.34 9 3.68 9 3 9 C2.67 9.99 2.34 10.98 2 12 C-0.32636321 7.92886437 0 4.65551788 0 0 Z " fill="#2B2B2B" transform="translate(83,112)"/>
<path d="M0 0 C4.56454251 0.54339792 7.9728176 1.79463821 12 4 C12 4.99 12 5.98 12 7 C11.34 7.66 10.68 8.32 10 9 C8.8944811 8.06409496 7.79064547 7.12620142 6.6875 6.1875 C6.07261719 5.66542969 5.45773438 5.14335937 4.82421875 4.60546875 C3.14575321 3.12827531 1.56117966 1.59960869 0 0 Z " fill="#E7E6E7" transform="translate(100,5)"/>
<path d="M0 0 C-2.71128135 1.8075209 -5.0469136 2.89445991 -8.0625 4.0625 C-11.57884439 5.42417865 -11.57884439 5.42417865 -15 7 C-15 6.34 -15 5.68 -15 5 C-15.99 4.67 -16.98 4.34 -18 4 C-15.94037148 3.32451422 -13.87715678 2.65995688 -11.8125 2 C-10.66394531 1.62875 -9.51539063 1.2575 -8.33203125 0.875 C-5.35679188 0.09369447 -3.04716104 -0.18363306 0 0 Z " fill="#2F2F2F" transform="translate(72,4)"/>
<path d="M0 0 C2.4375 0.75 2.4375 0.75 5 2 C6 3.9375 6 3.9375 6 6 C4.5625 7.75 4.5625 7.75 3 9 C1 8 1 8 -0.1875 5.0625 C-1 2 -1 2 0 0 Z " fill="#A8A8A8" transform="translate(85,168)"/>
<path d="M0 0 C1.65 1.32 3.3 2.64 5 4 C4.34 4.66 3.68 5.32 3 6 C2.83318891 9.08347826 2.83318891 9.08347826 3 12 C2.01 11.67 1.02 11.34 0 11 C-0.84098656 6.98195309 -1.05404945 3.98196457 0 0 Z " fill="#E6E6E6" transform="translate(79,82)"/>
<path d="M0 0 C0.66 0.66 1.32 1.32 2 2 C2.33 1.34 2.66 0.68 3 0 C3.99 0.33 4.98 0.66 6 1 C5.67 2.65 5.34 4.3 5 6 C4.34 6 3.68 6 3 6 C2.67 6.99 2.34 7.98 2 9 C-0.29013653 5.5647952 -0.17842973 4.014669 0 0 Z " fill="#3E3E3E" transform="translate(86,40)"/>
<path d="M0 0 C3 3.75 3 3.75 3 6 C3.99 6.33 4.98 6.66 6 7 C5.01 8.485 5.01 8.485 4 10 C3.34 9.67 2.68 9.34 2 9 C2 7.68 2 6.36 2 5 C0.68 5 -0.64 5 -2 5 C-2 3.68 -2 2.36 -2 1 C-1.34 0.67 -0.68 0.34 0 0 Z " fill="#1B1B1B" transform="translate(73,127)"/>
<path d="M0 0 C3.91402949 1.26941497 5.79072873 2.51167694 8 6 C7.01 6.495 7.01 6.495 6 7 C5.34227572 10.02934491 5.34227572 10.02934491 5 13 C4.67 13 4.34 13 4 13 C3.87882812 12.39671875 3.75765625 11.7934375 3.6328125 11.171875 C3.46523437 10.37265625 3.29765625 9.5734375 3.125 8.75 C2.96257812 7.96109375 2.80015625 7.1721875 2.6328125 6.359375 C2.00849925 4.03168856 1.15161458 2.10968048 0 0 Z " fill="#242424" transform="translate(94,113)"/>
<path d="M0 0 C0.66 0 1.32 0 2 0 C2.33 2.64 2.66 5.28 3 8 C2.01 8 1.02 8 0 8 C0 7.01 0 6.02 0 5 C-0.99 8.465 -0.99 8.465 -2 12 C-2.33 12 -2.66 12 -3 12 C-3.29162929 7.04230204 -3.12940055 3.97193147 0 0 Z " fill="#E8E8E8" transform="translate(76,74)"/>
<path d="M0 0 C0.66 0 1.32 0 2 0 C2.66 2.97 3.32 5.94 4 9 C2.02 9.66 0.04 10.32 -2 11 C-1.67 10.29875 -1.34 9.5975 -1 8.875 C0.09044562 5.73996884 0.15322643 3.29436818 0 0 Z " fill="#141414" transform="translate(93,99)"/>
<path d="M0 0 C0.33 0.99 0.66 1.98 1 3 C1.66 3 2.32 3 3 3 C3.99 5.64 4.98 8.28 6 11 C5.01 11.33 4.02 11.66 3 12 C3 11.01 3 10.02 3 9 C2.34 9 1.68 9 1 9 C0.67 6.03 0.34 3.06 0 0 Z " fill="#C6C6C6" transform="translate(83,96)"/>
<path d="M0 0 C1.32 0.66 2.64 1.32 4 2 C3.34 3.32 2.68 4.64 2 6 C1.34 5.01 0.68 4.02 0 3 C-0.99 4.485 -0.99 4.485 -2 6 C-2.66 6 -3.32 6 -4 6 C-4.33 6.99 -4.66 7.98 -5 9 C-5.66 8.67 -6.32 8.34 -7 8 C-4.69 5.36 -2.38 2.72 0 0 Z " fill="#222222" transform="translate(64,10)"/>
<path d="M0 0 C1.9375 0.375 1.9375 0.375 4 1 C4.33 1.66 4.66 2.32 5 3 C5.99 3.33 6.98 3.66 8 4 C8 4.66 8 5.32 8 6 C7.01 6 6.02 6 5 6 C4.67 7.32 4.34 8.64 4 10 C2.14223235 6.86501708 1.79859524 4.62528568 2 1 C1.34 0.67 0.68 0.34 0 0 Z " fill="#DEDEDE" transform="translate(84,148)"/>
<path d="M0 0 C0.125 5.75 0.125 5.75 -1 8 C-1.99 7.67 -2.98 7.34 -4 7 C-4 6.34 -4 5.68 -4 5 C-4.66 4.67 -5.32 4.34 -6 4 C-1.125 0 -1.125 0 0 0 Z " fill="#E4E4E4" transform="translate(95,24)"/>
<path d="M0 0 C5.12583611 -0.10251672 9.94997778 -0.03590199 15 1 C13 3 13 3 9.75 3.25 C6.1318718 3.00879145 3.36104678 2.31162801 0 1 C0 0.67 0 0.34 0 0 Z " fill="#818181" transform="translate(90,3)"/>
<path d="M0 0 C4.40114397 0.50298788 6.71195019 2.08772731 10 5 C9.34 5 8.68 5 8 5 C7.67 5.99 7.34 6.98 7 8 C6.401875 7.236875 5.80375 6.47375 5.1875 5.6875 C3.53040668 3.6516425 1.89702326 1.8021721 0 0 Z " fill="#DEDEDE" transform="translate(96,113)"/>
<path d="M0 0 C0.33 0 0.66 0 1 0 C1.66 2.31 2.32 4.62 3 7 C2.01 7 1.02 7 0 7 C-0.33 7.99 -0.66 8.98 -1 10 C-2.38125018 7.23749964 -2.19079306 5.05268901 -2 2 C-1.34 1.34 -0.68 0.68 0 0 Z " fill="#0B0B0B" transform="translate(80,72)"/>
<path d="M0 0 C0.66 0.33 1.32 0.66 2 1 C0.07423885 3.43929746 -1.80090595 5.80090595 -4 8 C-4.99 7.01 -5.98 6.02 -7 5 C-4.69 3.35 -2.38 1.7 0 0 Z " fill="#D8D8D8" transform="translate(77,4)"/>
<path d="M0 0 C1.85776765 3.13498292 2.20140476 5.37471432 2 9 C0.35 9.33 -1.3 9.66 -3 10 C-2.34 9.01 -1.68 8.02 -1 7 C-1 5.83314734 -1.0333378 4.66648819 -1.0625 3.5 C-1 1 -1 1 0 0 Z " fill="#222222" transform="translate(82,128)"/>
<path d="M0 0 C0.66 0.66 1.32 1.32 2 2 C2.66 1.34 3.32 0.68 4 0 C4.625 1.8125 4.625 1.8125 5 4 C4.01 5.485 4.01 5.485 3 7 C2.01 6.67 1.02 6.34 0 6 C0 4.02 0 2.04 0 0 Z " fill="#BEBEBE" transform="translate(86,72)"/>
<path d="M0 0 C0.12375 0.639375 0.2475 1.27875 0.375 1.9375 C0.684375 2.9584375 0.684375 2.9584375 1 4 C1.66 4.33 2.32 4.66 3 5 C0.625 6.5625 0.625 6.5625 -2 8 C-2.66 7.67 -3.32 7.34 -4 7 C-4.33 7.99 -4.66 8.98 -5 10 C-5.33 8.68 -5.66 7.36 -6 6 C-4.68 5.34 -3.36 4.68 -2 4 C-1.67 4.33 -1.34 4.66 -1 5 C-0.67 3.35 -0.34 1.7 0 0 Z " fill="#B1B1B1" transform="translate(90,63)"/>
<path d="M0 0 C0.66 0 1.32 0 2 0 C2.33 1.65 2.66 3.3 3 5 C0.03 5.66 -2.94 6.32 -6 7 C-1.5078125 1.53125 -1.5078125 1.53125 0 0 Z " fill="#181818" transform="translate(97,62)"/>
<path d="M0 0 C3.3 0 6.6 0 10 0 C9.67 0.99 9.34 1.98 9 3 C6.03 3 3.06 3 0 3 C0 2.01 0 1.02 0 0 Z " fill="#F1F1F1" transform="translate(87,177)"/>
<path d="M0 0 C0 1.65 0 3.3 0 5 C-2.64 4.67 -5.28 4.34 -8 4 C-7.67 3.01 -7.34 2.02 -7 1 C-2.25 0 -2.25 0 0 0 Z " fill="#171717" transform="translate(100,109)"/>
<path d="M0 0 C1.33333333 2.66666667 2.66666667 5.33333333 4 8 C1.64828869 7.40138258 -0.6859378 6.73075648 -3 6 C-3.33 5.34 -3.66 4.68 -4 4 C-3.01 4 -2.02 4 -1 4 C-0.67 2.68 -0.34 1.36 0 0 Z " fill="#1D1D1D" transform="translate(77,102)"/>
<path d="M0 0 C3.16717283 1.58358642 4.73268318 2.45263699 6.3125 5.6875 C6.539375 6.450625 6.76625 7.21375 7 8 C5.68 8 4.36 8 3 8 C0 2.25 0 2.25 0 0 Z " fill="#DBDBDB" transform="translate(91,45)"/>
<path d="M0 0 C6.76923077 3.44615385 6.76923077 3.44615385 7.9375 6.25 C7.958125 6.8275 7.97875 7.405 8 8 C7.01 8 6.02 8 5 8 C4.731875 7.360625 4.46375 6.72125 4.1875 6.0625 C3.11332248 3.66868314 3.11332248 3.66868314 0 3 C0 2.01 0 1.02 0 0 Z " fill="#121212" transform="translate(132,16)"/>
<path d="M0 0 C1 3 1 3 1 6 C-1.5 7.6875 -1.5 7.6875 -4 9 C-3.46930939 5.17902761 -2.50298434 2.93828597 0 0 Z " fill="#151515" transform="translate(70,118)"/>
<path d="M0 0 C0.99 0.33 1.98 0.66 3 1 C2.01 4.3 1.02 7.6 0 11 C-0.33 11 -0.66 11 -1 11 C-1.02688151 9.35425434 -1.04634123 7.70838587 -1.0625 6.0625 C-1.07410156 5.14597656 -1.08570312 4.22945312 -1.09765625 3.28515625 C-1 1 -1 1 0 0 Z " fill="#F1F1F1" transform="translate(1,59)"/>
<path d="M0 0 C-0.33 0.99 -0.66 1.98 -1 3 C-2.98 3.33 -4.96 3.66 -7 4 C-7 3.01 -7 2.02 -7 1 C-4.53721199 -0.231394 -2.7204945 -0.07159196 0 0 Z " fill="#090909" transform="translate(57,9)"/>
<path d="M0 0 C0.66 0 1.32 0 2 0 C3.625 2 3.625 2 5 4 C4 6 4 6 2 7 C1.67 6.34 1.34 5.68 1 5 C0.01 5.495 0.01 5.495 -1 6 C-0.67 4.02 -0.34 2.04 0 0 Z " fill="#CFCFCF" transform="translate(88,2)"/>
<path d="M0 0 C1.9375 0.375 1.9375 0.375 4 1 C4.33 1.66 4.66 2.32 5 3 C4.01 4.485 4.01 4.485 3 6 C2.34 6 1.68 6 1 6 C0.67 4.02 0.34 2.04 0 0 Z " fill="#ECECEC" transform="translate(88,161)"/>
<path d="M0 0 C0.99 0.33 1.98 0.66 3 1 C3.6875 3.0625 3.6875 3.0625 4 5 C2.68 5.99 1.36 6.98 0 8 C0 5.36 0 2.72 0 0 Z " fill="#121212" transform="translate(75,41)"/>
<path d="M0 0 C0.66 0.66 1.32 1.32 2 2 C1.75 4.0625 1.75 4.0625 1 6 C0.01 6.495 0.01 6.495 -1 7 C-1.66 6.67 -2.32 6.34 -3 6 C-3 4.35 -3 2.7 -3 1 C-2.34 1.66 -1.68 2.32 -1 3 C-0.67 2.01 -0.34 1.02 0 0 Z " fill="#D0CFD0" transform="translate(89,20)"/>
<path d="M0 0 C2.88437779 1.29299694 4.87219421 2.65941363 7 5 C5.35 5 3.7 5 2 5 C2 4.34 2 3.68 2 3 C1.01 2.67 0.02 2.34 -1 2 C-0.67 1.34 -0.34 0.68 0 0 Z " fill="#D1D1D1" transform="translate(74,173)"/>
<path d="M0 0 C1.32 0 2.64 0 4 0 C3.67 2.31 3.34 4.62 3 7 C1.5 5.75 1.5 5.75 0 4 C0 2.68 0 1.36 0 0 Z " fill="#AEAEAE" transform="translate(84,161)"/>
<path d="M0 0 C0 3.10551666 -0.5393715 4.35261084 -2 7 C-2.99 7 -3.98 7 -5 7 C-3.75023244 3.34683329 -3.32901247 2.21934164 0 0 Z " fill="#2C2C2C" transform="translate(79,154)"/>
<path d="M0 0 C0.33 0.66 0.66 1.32 1 2 C1.66 2 2.32 2 3 2 C3 3.65 3 5.3 3 7 C3.66 7.33 4.32 7.66 5 8 C4.01 9.485 4.01 9.485 3 11 C3 10.01 3 9.02 3 8 C2.34 7.67 1.68 7.34 1 7 C0.59270772 4.67843403 0.25561323 2.3431213 0 0 Z " fill="#515151" transform="translate(83,147)"/>
<path d="M0 0 C0.66 1.32 1.32 2.64 2 4 C1.01 4.99 0.02 5.98 -1 7 C-1.66 6.67 -2.32 6.34 -3 6 C-2.42655063 3.13275314 -2.1385485 2.1385485 0 0 Z " fill="#D5D5D5" transform="translate(89,113)"/>
<path d="M0 0 C2 0 2 0 3.5 1.375 C3.995 1.91125 4.49 2.4475 5 3 C5.66 3.66 6.32 4.32 7 5 C0.25 4.25 0.25 4.25 -2 2 C-1.34 1.34 -0.68 0.68 0 0 Z " fill="#262626" transform="translate(74,64)"/>
<path d="M0 0 C1 2 2 4 3 6 C2.67 6.66 2.34 7.32 2 8 C1.34 8 0.68 8 0 8 C-0.38063221 5.6739143 -0.71269945 3.33944736 -1 1 C-0.67 0.67 -0.34 0.34 0 0 Z " fill="#D7D7D7" transform="translate(82,169)"/>
<path d="M0 0 C0.33 0 0.66 0 1 0 C3.125 6.75 3.125 6.75 2 9 C1.34 9 0.68 9 0 9 C-1.125 3.375 -1.125 3.375 0 0 Z " fill="#2B2B2B" transform="translate(82,95)"/>
<path d="M0 0 C0.66 0.33 1.32 0.66 2 1 C2 1.66 2 2.32 2 3 C2.66 3.33 3.32 3.66 4 4 C3.01 4.99 2.02 5.98 1 7 C0.34 6.67 -0.32 6.34 -1 6 C-1.042721 4.33388095 -1.04063832 2.66617115 -1 1 C-0.67 0.67 -0.34 0.34 0 0 Z " fill="#131313" transform="translate(89,52)"/>
<path d="M0 0 C0.66 0.33 1.32 0.66 2 1 C-0.97 3.475 -0.97 3.475 -4 6 C-4.66 5.67 -5.32 5.34 -6 5 C-6 4.34 -6 3.68 -6 3 C-4.03533587 1.93224776 -2.03144641 0.93446535 0 0 Z " fill="#171717" transform="translate(97,40)"/>
<path d="M0 0 C1.9375 0.75 1.9375 0.75 4 2 C4.75 4.125 4.75 4.125 5 6 C4.01 6.66 3.02 7.32 2 8 C1.34 5.36 0.68 2.72 0 0 Z " fill="#111111" transform="translate(92,5)"/>
<path d="M0 0 C0.66 0.66 1.32 1.32 2 2 C-3.078125 5.3203125 -3.078125 5.3203125 -5 6 C-6.32 5.34 -7.64 4.68 -9 4 C-6.03 3.34 -3.06 2.68 0 2 C0 1.34 0 0.68 0 0 Z " fill="#DFDFDF" transform="translate(72,3)"/>
<path d="M0 0 C0.66 0.33 1.32 0.66 2 1 C1.39816251 3.02045442 0.72693904 5.02111039 0 7 C-0.99 7.495 -0.99 7.495 -2 8 C-2.20086443 4.28400809 -2.1519437 3.22791555 0 0 Z " fill="#F3F3F3" transform="translate(80,154)"/>
<path d="M0 0 C0.99 0.33 1.98 0.66 3 1 C3 1.66 3 2.32 3 3 C3.99 3.33 4.98 3.66 6 4 C5.01 4.495 5.01 4.495 4 5 C1.96855359 4.06553465 -0.03533587 3.06775224 -2 2 C-1.34 1.34 -0.68 0.68 0 0 Z " fill="#292929" transform="translate(76,147)"/>
<path d="M0 0 C0.12375 0.639375 0.2475 1.27875 0.375 1.9375 C0.58125 2.618125 0.7875 3.29875 1 4 C1.66 4.33 2.32 4.66 3 5 C2.01 6.485 2.01 6.485 1 8 C-1 6 -1 6 -1.1875 3.4375 C-1 1 -1 1 0 0 Z " fill="#303030" transform="translate(82,138)"/>
<path d="M0 0 C1.76462683 3.08809695 2 4.23312136 2 8 C1.01 7.34 0.02 6.68 -1 6 C-0.67 4.02 -0.34 2.04 0 0 Z " fill="#E0E0E0" transform="translate(82,112)"/>
<path d="M0 0 C1.64350079 3.28700157 2.41321669 5.47930015 3 9 C2.01 9.33 1.02 9.66 0 10 C0 6.7 0 3.4 0 0 Z " fill="#E6E6E6" transform="translate(0,110)"/>
<path d="M0 0 C0.625 1.8125 0.625 1.8125 1 4 C0.01 5.485 0.01 5.485 -1 7 C-1.66 6.67 -2.32 6.34 -3 6 C-2.42655063 3.13275314 -2.1385485 2.1385485 0 0 Z " fill="#1F1F1F" transform="translate(93,75)"/>
<path d="M0 0 C0.66 0.33 1.32 0.66 2 1 C1.01 1.33 0.02 1.66 -1 2 C-1.33 2.99 -1.66 3.98 -2 5 C-3.65 5.33 -5.3 5.66 -7 6 C-2.25 1.125 -2.25 1.125 0 0 Z " fill="#282828" transform="translate(77,71)"/>
<path d="M0 0 C0.33 0 0.66 0 1 0 C1 1.98 1 3.96 1 6 C0.01 6 -0.98 6 -2 6 C-2.33 4.68 -2.66 3.36 -3 2 C-2.34 2 -1.68 2 -1 2 C-0.67 1.34 -0.34 0.68 0 0 Z " fill="#303030" transform="translate(89,62)"/>
<path d="M0 0 C2.4375 0.8125 2.4375 0.8125 5 2 C5.33 2.99 5.66 3.98 6 5 C5.34 5.66 4.68 6.32 4 7 C2.02 3.535 2.02 3.535 0 0 Z " fill="#EFEFEF" transform="translate(94,5)"/>
</svg>
